<?xml version="1.0" standalone="no"?>
<!DOCTYPE svg PUBLIC "-//W3C//DTD SVG 20010904//EN"
 "http://www.w3.org/TR/2001/REC-SVG-20010904/DTD/svg10.dtd">
<svg version="1.0" xmlns="http://www.w3.org/2000/svg"
 width="225.000000pt" height="225.000000pt" viewBox="0 0 225.000000 225.000000"
 preserveAspectRatio="xMidYMid meet">
<metadata>
Created by potrace 1.16, written by Peter Selinger 2001-2019
</metadata>
<g transform="translate(0.000000,225.000000) scale(0.100000,-0.100000)"
fill="#000000" stroke="none">
<path d="M133 1450 c-2 -19 4 -20 103 -20 l104 0 0 -130 c0 -189 17 -220 122
-220 37 0 61 6 78 20 24 18 25 23 30 172 l5 153 177 3 c201 3 234 -5 268 -60
13 -21 20 -51 20 -81 0 -89 -49 -137 -139 -137 l-51 0 0 -79 c0 -74 1 -79 20
-74 17 4 20 14 20 54 0 49 0 49 33 49 42 0 106 37 133 77 40 59 38 166 -4 222
-10 14 -34 36 -52 49 -32 21 -41 22 -251 22 l-219 0 0 -153 c0 -179 -6 -197
-70 -197 -66 0 -70 10 -70 191 l0 159 -128 0 c-121 0 -128 -1 -129 -20z"/>
<path d="M1240 1463 c-80 -30 -109 -92 -110 -231 0 -108 14 -155 56 -194 35
-31 72 -37 280 -39 l209 -2 2 117 c1 65 3 120 5 122 2 2 46 -51 97 -116 l94
-120 58 0 59 0 2 173 3 172 63 3 c54 3 62 6 62 22 0 18 -7 20 -87 20 l-88 0
-2 -173 c-2 -245 14 -252 -271 112 l-42 54 0 -172 0 -171 -176 0 c-258 0 -273
11 -275 194 -1 119 7 142 64 176 26 16 51 20 134 20 96 0 101 1 96 20 -5 18
-13 20 -112 19 -58 0 -113 -3 -121 -6z"/>
<path d="M1548 1298 l-3 -173 -123 -3 c-73 -1 -130 2 -142 8 -18 10 -20 21
-20 105 0 114 1 115 128 115 85 0 90 1 85 20 -5 18 -14 20 -104 20 -89 0 -100
-2 -126 -24 -27 -24 -28 -26 -28 -131 0 -105 1 -107 28 -131 27 -23 33 -24
187 -24 l160 0 2 173 c4 229 4 229 161 33 63 -79 122 -154 129 -165 7 -12 16
-21 20 -21 5 0 8 74 8 165 l0 165 105 0 c98 0 105 1 105 20 0 19 -7 20 -130
20 l-129 0 -3 -121 -3 -121 -94 121 -93 121 -59 0 -59 0 -2 -172z"/>
<path d="M137 1384 c-3 -3 -3 -12 0 -20 4 -10 23 -14 64 -14 l59 0 0 -107 c0
-176 43 -235 177 -242 89 -4 112 1 153 35 51 43 62 77 66 193 2 58 4 109 4
113 0 5 57 8 128 8 141 0 172 -10 172 -56 0 -57 -13 -64 -110 -64 l-90 0 0
-114 c0 -63 4 -117 9 -120 5 -4 16 -3 25 0 13 5 16 23 16 95 l0 89 64 0 c55 0
69 4 95 26 27 22 31 32 31 74 0 102 -17 110 -230 110 l-160 0 0 -122 c0 -143
-13 -182 -70 -210 -43 -22 -121 -23 -160 -3 -62 32 -70 54 -70 201 l0 134 -83
0 c-46 0 -86 -3 -90 -6z"/>
</g>
</svg>
